<svg width="153" height="27" viewBox="0 0 153 27" fill="none" xmlns="http://www.w3.org/2000/svg">
<g clip-path="url(#clip0_1_25)">
<path d="M38.0243 21.24C37.1043 21.24 36.2709 21.0933 35.5243 20.8C34.7909 20.4933 34.1576 20.04 33.6243 19.44C33.1043 18.84 32.7043 18.1 32.4243 17.22C32.1443 16.3267 32.0043 15.2933 32.0043 14.12C32.0043 12.9467 32.1443 11.9067 32.4243 11C32.7043 10.08 33.1043 9.31333 33.6243 8.7C34.1576 8.07333 34.7909 7.6 35.5243 7.28C36.2709 6.96 37.1043 6.8 38.0243 6.8C39.2776 6.8 40.3176 7.06667 41.1443 7.6C41.9709 8.13333 42.6309 8.94 43.1243 10.02L40.8643 11.22C40.6643 10.5933 40.3376 10.0933 39.8843 9.72C39.4309 9.33333 38.8109 9.14 38.0243 9.14C37.0376 9.14 36.2509 9.47333 35.6643 10.14C35.0909 10.8067 34.8043 11.74 34.8043 12.94V15.14C34.8043 16.3533 35.0909 17.2867 35.6643 17.94C36.2509 18.58 37.0376 18.9 38.0243 18.9C38.8109 18.9 39.4509 18.6867 39.9443 18.26C40.4509 17.8333 40.8176 17.3067 41.0443 16.68L43.1843 17.94C42.6776 18.98 42.0043 19.7933 41.1643 20.38C40.3243 20.9533 39.2776 21.24 38.0243 21.24ZM48.0763 21H45.4363V7.04H51.7363C52.3763 7.04 52.9496 7.14 53.4563 7.34C53.963 7.54 54.3896 7.83333 54.7363 8.22C55.0963 8.59333 55.3696 9.04667 55.5563 9.58C55.7563 10.1133 55.8563 10.7067 55.8563 11.36C55.8563 12.32 55.6363 13.1467 55.1963 13.84C54.7696 14.5333 54.123 15.0267 53.2563 15.32L56.1163 21H53.1763L50.5763 15.62H48.0763V21ZM51.4763 13.4C51.983 13.4 52.383 13.2667 52.6763 13C52.9696 12.72 53.1163 12.3267 53.1163 11.82V10.9C53.1163 10.3933 52.9696 10.0067 52.6763 9.74C52.383 9.47333 51.983 9.34 51.4763 9.34H48.0763V13.4H51.4763ZM58.1376 21V18.88H59.9776V9.16H58.1376V7.04H64.4776V9.16H62.6176V18.88H64.4776V21H58.1376ZM71.5146 21.24C70.3146 21.24 69.2946 21.0267 68.4546 20.6C67.6279 20.1733 66.9146 19.6133 66.3146 18.92L68.0946 17.2C68.5746 17.76 69.1079 18.1867 69.6946 18.48C70.2946 18.7733 70.9546 18.92 71.6746 18.92C72.4879 18.92 73.1013 18.7467 73.5146 18.4C73.9279 18.04 74.1346 17.56 74.1346 16.96C74.1346 16.4933 74.0013 16.1133 73.7346 15.82C73.4679 15.5267 72.9679 15.3133 72.2346 15.18L70.9146 14.98C68.1279 14.54 66.7346 13.1867 66.7346 10.92C66.7346 10.2933 66.8479 9.72667 67.0746 9.22C67.3146 8.71333 67.6546 8.28 68.0946 7.92C68.5346 7.56 69.0613 7.28667 69.6746 7.1C70.3013 6.9 71.0079 6.8 71.7946 6.8C72.8479 6.8 73.7679 6.97333 74.5546 7.32C75.3413 7.66667 76.0146 8.18 76.5746 8.86L74.7746 10.56C74.4279 10.1333 74.0079 9.78667 73.5146 9.52C73.0213 9.25333 72.4013 9.12 71.6546 9.12C70.8946 9.12 70.3213 9.26667 69.9346 9.56C69.5613 9.84 69.3746 10.24 69.3746 10.76C69.3746 11.2933 69.5279 11.6867 69.8346 11.94C70.1413 12.1933 70.6346 12.38 71.3146 12.5L72.6146 12.74C74.0279 12.9933 75.0679 13.4467 75.7346 14.1C76.4146 14.74 76.7546 15.64 76.7546 16.8C76.7546 17.4667 76.6346 18.0733 76.3946 18.62C76.1679 19.1533 75.8279 19.62 75.3746 20.02C74.9346 20.4067 74.3879 20.7067 73.7346 20.92C73.0946 21.1333 72.3546 21.24 71.5146 21.24ZM79.4012 21V7.04H85.6812C86.3212 7.04 86.8945 7.14667 87.4012 7.36C87.9212 7.56 88.3612 7.85333 88.7212 8.24C89.0812 8.61333 89.3545 9.06667 89.5412 9.6C89.7278 10.1333 89.8212 10.72 89.8212 11.36C89.8212 12.0133 89.7278 12.6067 89.5412 13.14C89.3545 13.66 89.0812 14.1133 88.7212 14.5C88.3612 14.8733 87.9212 15.1667 87.4012 15.38C86.8945 15.58 86.3212 15.68 85.6812 15.68H82.0412V21H79.4012ZM82.0412 13.4H85.4412C85.9478 13.4 86.3478 13.2667 86.6412 13C86.9345 12.72 87.0812 12.3267 87.0812 11.82V10.9C87.0812 10.3933 86.9345 10.0067 86.6412 9.74C86.3478 9.47333 85.9478 9.34 85.4412 9.34H82.0412V13.4ZM91.6337 21V18.88H93.4737V9.16H91.6337V7.04H97.9737V9.16H96.1137V18.88H97.9737V21H91.6337ZM100.671 21V7.04H109.651V9.38H103.311V12.76H108.831V15.1H103.311V21H100.671ZM115.554 21V15.52L110.774 7.04H113.734L116.954 12.94H116.994L120.134 7.04H123.014L118.214 15.5V21H115.554ZM138.217 21L137.097 17.44H132.137L131.037 21H128.357L133.037 7.04H136.317L140.957 21H138.217ZM134.657 9.44H134.557L132.777 15.18H136.457L134.657 9.44ZM142.434 21V18.88H144.274V9.16H142.434V7.04H148.774V9.16H146.914V18.88H148.774V21H142.434Z" fill="url(#paint0_linear_1_25)"/>
<g filter="url(#filter0_d_1_25)">
<path d="M28.6864 1.94103C28.7651 1.94103 28.8289 1.86815 28.8289 1.77825C28.8289 1.68836 28.7651 1.61548 28.6864 1.61548C28.6077 1.61548 28.5439 1.68836 28.5439 1.77825C28.5439 1.86815 28.6077 1.94103 28.6864 1.94103Z" fill="url(#paint1_linear_1_25)"/>
</g>
<g filter="url(#filter1_d_1_25)">
<path d="M5.17682 6.03804C5.38105 6.03804 5.5466 5.84898 5.5466 5.61576C5.5466 5.38254 5.38105 5.19348 5.17682 5.19348C4.9726 5.19348 4.80704 5.38254 4.80704 5.61576C4.80704 5.84898 4.9726 6.03804 5.17682 6.03804Z" fill="url(#paint2_linear_1_25)"/>
</g>
<g filter="url(#filter2_d_1_25)">
<path d="M1.36811 18.4063C1.57234 18.4063 1.73789 18.2173 1.73789 17.984C1.73789 17.7508 1.57234 17.5618 1.36811 17.5618C1.16388 17.5618 0.998322 17.7508 0.998322 17.984C0.998322 18.2173 1.16388 18.4063 1.36811 18.4063Z" fill="url(#paint3_linear_1_25)"/>
</g>
<g filter="url(#filter3_d_1_25)">
<path d="M23.2622 21.8016C23.4664 21.8016 23.6319 21.6125 23.6319 21.3793C23.6319 21.1461 23.4664 20.957 23.2622 20.957C23.0579 20.957 22.8923 21.1461 22.8923 21.3793C22.8923 21.6125 23.0579 21.8016 23.2622 21.8016Z" fill="url(#paint4_linear_1_25)"/>
</g>
<g filter="url(#filter4_d_1_25)">
<path d="M5.94479 14.6515C6.02351 14.6515 6.08733 14.5786 6.08733 14.4887C6.08733 14.3988 6.02351 14.3259 5.94479 14.3259C5.86607 14.3259 5.80225 14.3988 5.80225 14.4887C5.80225 14.5786 5.86607 14.6515 5.94479 14.6515Z" fill="url(#paint5_linear_1_25)"/>
</g>
<g filter="url(#filter5_d_1_25)">
<path d="M11.4061 1.51158C11.5297 1.51158 11.63 1.39706 11.63 1.25579C11.63 1.11452 11.5297 1 11.4061 1C11.2823 1 11.182 1.11452 11.182 1.25579C11.182 1.39706 11.2823 1.51158 11.4061 1.51158Z" fill="url(#paint6_linear_1_25)"/>
</g>
<g filter="url(#filter6_d_1_25)">
<path d="M2.9394 12.9061C2.86654 12.9187 2.79874 12.8679 2.77719 12.783C2.57512 12.0289 2.46885 11.9374 1.80801 11.965C1.73174 11.9675 1.6646 11.906 1.65362 11.8228C1.64249 11.7385 1.69 11.6595 1.76323 11.6339C2.3953 11.4199 2.46336 11.3161 2.47902 10.5257C2.48089 10.438 2.53048 10.3669 2.60234 10.3545C2.67622 10.3417 2.743 10.3929 2.76658 10.4773C2.96647 11.2306 3.07274 11.3221 3.73257 11.2946C3.81101 11.2929 3.87683 11.3525 3.88812 11.4379C3.89911 11.521 3.85361 11.5997 3.77837 11.6257C3.14558 11.8421 3.07839 11.9446 3.06475 12.7346C3.06101 12.8239 3.01025 12.894 2.9394 12.9061Z" fill="url(#paint7_linear_1_25)"/>
</g>
<path d="M15.1451 6.19353C14.9529 6.27642 14.8249 6.48608 14.8249 6.72008C14.8249 6.95408 14.9529 7.16364 15.1451 7.24653C16.6776 7.90318 17.887 9.2842 18.4621 11.0344C18.5346 11.2537 18.7182 11.4001 18.9231 11.4001C19.128 11.4001 19.3116 11.2537 19.3841 11.0344C19.9592 9.2842 21.1686 7.90318 22.7011 7.24653C22.8933 7.16364 23.0213 6.95408 23.0213 6.72008C23.0213 6.48608 22.8933 6.27642 22.7011 6.19353C21.1686 5.53688 19.9592 4.15583 19.3841 2.40566C19.3116 2.18629 19.128 2.04004 18.9231 2.04004C18.7182 2.04004 18.5346 2.18629 18.4621 2.40566C17.887 4.15583 16.6776 5.53688 15.1451 6.19353ZM9.91986 5.61342C9.80885 5.33553 9.56551 5.16008 9.30085 5.16008C9.03622 5.16008 8.79287 5.33553 8.68186 5.61342C7.22718 9.20006 4.703 12.0815 1.5612 13.7401C1.31787 13.8667 1.16418 14.1446 1.16418 14.4517C1.16418 14.7589 1.31787 15.0318 1.5612 15.1586C4.7019 16.8151 7.22819 19.698 8.67758 23.2853C8.78859 23.5632 9.03194 23.7386 9.29657 23.7386C9.56123 23.7386 9.80457 23.5632 9.91558 23.2853C11.3677 19.6948 13.892 16.8121 17.0362 15.1537C17.2795 15.0271 17.4333 14.7492 17.4333 14.4469C17.4333 14.1446 17.2795 13.8667 17.0362 13.7401C13.895 12.0849 11.3705 9.19996 9.91986 5.61342ZM18.4621 18.0056C17.887 19.7558 16.6776 21.1368 15.1451 21.7935C14.9529 21.8764 14.8249 22.0861 14.8249 22.3201C14.8249 22.5541 14.9529 22.7636 15.1451 22.8465C16.6776 23.5032 17.887 24.8842 18.4621 26.6344C18.5346 26.8537 18.7182 27 18.9231 27C19.128 27 19.3116 26.8537 19.3841 26.6344C19.9592 24.8842 21.1686 23.5032 22.7011 22.8465C22.8933 22.7636 23.0213 22.5541 23.0213 22.3201C23.0213 22.0861 22.8933 21.8764 22.7011 21.7935C21.1686 21.1368 19.9592 19.7558 19.3841 18.0056C19.3116 17.7863 19.128 17.6401 18.9231 17.6401C18.7182 17.6401 18.5346 17.7863 18.4621 18.0056Z" fill="url(#paint8_linear_1_25)"/>
<path d="M11.8135 16.0857C5.28904 18.6733 0.312476 21.7987 0.698036 23.0665C1.0836 24.3342 6.68527 23.2643 13.2097 20.6767C19.7342 18.0891 24.7108 14.9637 24.3252 13.696C23.9396 12.4282 18.338 13.4981 11.8135 16.0857Z" stroke="url(#paint9_linear_1_25)" stroke-width="0.549291"/>
<g style="mix-blend-mode:screen" filter="url(#filter7_f_1_25)">
<path d="M11.8135 16.0855C5.28904 18.6731 0.312476 21.7985 0.698036 23.0662C1.0836 24.334 6.68527 23.2641 13.2097 20.6765C19.7342 18.0889 24.7108 14.9635 24.3252 13.6957C23.9396 12.4279 18.338 13.4979 11.8135 16.0855Z" stroke="url(#paint10_linear_1_25)" stroke-width="0.549291"/>
</g>
<g filter="url(#filter8_d_1_25)">
<path d="M21.7406 7.36177C21.64 7.34534 21.5682 7.24737 21.5692 7.12559C21.5645 6.03816 21.456 5.86916 20.5737 5.60594C20.4721 5.57474 20.4048 5.46284 20.4192 5.34812C20.4339 5.23175 20.5241 5.14897 20.6297 5.14834C21.5388 5.15229 21.6648 5.046 21.9602 4.0094C21.9932 3.89443 22.0835 3.82298 22.1826 3.8392C22.2846 3.85589 22.355 3.95363 22.3568 4.07593C22.3589 5.16124 22.4674 5.33034 23.3483 5.59325C23.4525 5.62653 23.5187 5.735 23.504 5.85294C23.4896 5.96765 23.4021 6.05096 23.2937 6.05116C22.3828 6.05012 22.2584 6.15496 21.9658 7.19204C21.9298 7.30821 21.8384 7.37778 21.7406 7.36177Z" fill="url(#paint11_linear_1_25)"/>
</g>
</g>
<defs>
<filter id="filter0_d_1_25" x="28.2024" y="1.27399" width="0.968021" height="1.00853" filterUnits="userSpaceOnUse" color-interpolation-filters="sRGB">
<feFlood flood-opacity="0" result="BackgroundImageFix"/>
<feColorMatrix in="SourceAlpha" type="matrix" values="0 0 0 0 0 0 0 0 0 0 0 0 0 0 0 0 0 0 127 0" result="hardAlpha"/>
<feOffset/>
<feGaussianBlur stdDeviation="0.170743"/>
<feComposite in2="hardAlpha" operator="out"/>
<feColorMatrix type="matrix" values="0 0 0 0 0.592157 0 0 0 0 0.392157 0 0 0 0 1 0 0 0 1 0"/>
<feBlend mode="normal" in2="BackgroundImageFix" result="effect1_dropShadow_1_25"/>
<feBlend mode="normal" in="SourceGraphic" in2="effect1_dropShadow_1_25" result="shape"/>
</filter>
<filter id="filter1_d_1_25" x="3.92114" y="4.30758" width="2.51136" height="2.61637" filterUnits="userSpaceOnUse" color-interpolation-filters="sRGB">
<feFlood flood-opacity="0" result="BackgroundImageFix"/>
<feColorMatrix in="SourceAlpha" type="matrix" values="0 0 0 0 0 0 0 0 0 0 0 0 0 0 0 0 0 0 127 0" result="hardAlpha"/>
<feOffset/>
<feGaussianBlur stdDeviation="0.442949"/>
<feComposite in2="hardAlpha" operator="out"/>
<feColorMatrix type="matrix" values="0 0 0 0 0.592157 0 0 0 0 0.392157 0 0 0 0 1 0 0 0 1 0"/>
<feBlend mode="normal" in2="BackgroundImageFix" result="effect1_dropShadow_1_25"/>
<feBlend mode="normal" in="SourceGraphic" in2="effect1_dropShadow_1_25" result="shape"/>
</filter>
<filter id="filter2_d_1_25" x="0.112424" y="16.6759" width="2.51136" height="2.61631" filterUnits="userSpaceOnUse" color-interpolation-filters="sRGB">
<feFlood flood-opacity="0" result="BackgroundImageFix"/>
<feColorMatrix in="SourceAlpha" type="matrix" values="0 0 0 0 0 0 0 0 0 0 0 0 0 0 0 0 0 0 127 0" result="hardAlpha"/>
<feOffset/>
<feGaussianBlur stdDeviation="0.442949"/>
<feComposite in2="hardAlpha" operator="out"/>
<feColorMatrix type="matrix" values="0 0 0 0 0.592157 0 0 0 0 0.392157 0 0 0 0 1 0 0 0 1 0"/>
<feBlend mode="normal" in2="BackgroundImageFix" result="effect1_dropShadow_1_25"/>
<feBlend mode="normal" in="SourceGraphic" in2="effect1_dropShadow_1_25" result="shape"/>
</filter>
<filter id="filter3_d_1_25" x="22.0065" y="20.0711" width="2.51139" height="2.6164" filterUnits="userSpaceOnUse" color-interpolation-filters="sRGB">
<feFlood flood-opacity="0" result="BackgroundImageFix"/>
<feColorMatrix in="SourceAlpha" type="matrix" values="0 0 0 0 0 0 0 0 0 0 0 0 0 0 0 0 0 0 127 0" result="hardAlpha"/>
<feOffset/>
<feGaussianBlur stdDeviation="0.442949"/>
<feComposite in2="hardAlpha" operator="out"/>
<feColorMatrix type="matrix" values="0 0 0 0 0.592157 0 0 0 0 0.392157 0 0 0 0 1 0 0 0 1 0"/>
<feBlend mode="normal" in2="BackgroundImageFix" result="effect1_dropShadow_1_25"/>
<feBlend mode="normal" in="SourceGraphic" in2="effect1_dropShadow_1_25" result="shape"/>
</filter>
<filter id="filter4_d_1_25" x="5.46076" y="13.9844" width="0.968052" height="1.00856" filterUnits="userSpaceOnUse" color-interpolation-filters="sRGB">
<feFlood flood-opacity="0" result="BackgroundImageFix"/>
<feColorMatrix in="SourceAlpha" type="matrix" values="0 0 0 0 0 0 0 0 0 0 0 0 0 0 0 0 0 0 127 0" result="hardAlpha"/>
<feOffset/>
<feGaussianBlur stdDeviation="0.170743"/>
<feComposite in2="hardAlpha" operator="out"/>
<feColorMatrix type="matrix" values="0 0 0 0 0.592157 0 0 0 0 0.392157 0 0 0 0 1 0 0 0 1 0"/>
<feBlend mode="normal" in2="BackgroundImageFix" result="effect1_dropShadow_1_25"/>
<feBlend mode="normal" in="SourceGraphic" in2="effect1_dropShadow_1_25" result="shape"/>
</filter>
<filter id="filter5_d_1_25" x="10.6454" y="0.463378" width="1.52123" height="1.58481" filterUnits="userSpaceOnUse" color-interpolation-filters="sRGB">
<feFlood flood-opacity="0" result="BackgroundImageFix"/>
<feColorMatrix in="SourceAlpha" type="matrix" values="0 0 0 0 0 0 0 0 0 0 0 0 0 0 0 0 0 0 127 0" result="hardAlpha"/>
<feOffset/>
<feGaussianBlur stdDeviation="0.268311"/>
<feComposite in2="hardAlpha" operator="out"/>
<feColorMatrix type="matrix" values="0 0 0 0 0.592157 0 0 0 0 0.392157 0 0 0 0 1 0 0 0 1 0"/>
<feBlend mode="normal" in2="BackgroundImageFix" result="effect1_dropShadow_1_25"/>
<feBlend mode="normal" in="SourceGraphic" in2="effect1_dropShadow_1_25" result="shape"/>
</filter>
<filter id="filter6_d_1_25" x="0.570384" y="9.55252" width="4.40098" height="4.7187" filterUnits="userSpaceOnUse" color-interpolation-filters="sRGB">
<feFlood flood-opacity="0" result="BackgroundImageFix"/>
<feColorMatrix in="SourceAlpha" type="matrix" values="0 0 0 0 0 0 0 0 0 0 0 0 0 0 0 0 0 0 127 0" result="hardAlpha"/>
<feOffset dy="0.281606"/>
<feGaussianBlur stdDeviation="0.540812"/>
<feComposite in2="hardAlpha" operator="out"/>
<feColorMatrix type="matrix" values="0 0 0 0 0.220722 0 0 0 0 0.210451 0 0 0 0 0.241667 0 0 0 0.6 0"/>
<feBlend mode="normal" in2="BackgroundImageFix" result="effect1_dropShadow_1_25"/>
<feBlend mode="normal" in="SourceGraphic" in2="effect1_dropShadow_1_25" result="shape"/>
</filter>
<filter id="filter7_f_1_25" x="0.147923" y="12.6334" width="24.7274" height="11.4951" filterUnits="userSpaceOnUse" color-interpolation-filters="sRGB">
<feFlood flood-opacity="0" result="BackgroundImageFix"/>
<feBlend mode="normal" in="SourceGraphic" in2="BackgroundImageFix" result="shape"/>
<feGaussianBlur stdDeviation="0.127195" result="effect1_foregroundBlur_1_25"/>
</filter>
<filter id="filter8_d_1_25" x="18.2868" y="2.26113" width="7.34968" height="7.78805" filterUnits="userSpaceOnUse" color-interpolation-filters="sRGB">
<feFlood flood-opacity="0" result="BackgroundImageFix"/>
<feColorMatrix in="SourceAlpha" type="matrix" values="0 0 0 0 0 0 0 0 0 0 0 0 0 0 0 0 0 0 127 0" result="hardAlpha"/>
<feOffset dy="0.554677"/>
<feGaussianBlur stdDeviation="1.06523"/>
<feComposite in2="hardAlpha" operator="out"/>
<feColorMatrix type="matrix" values="0 0 0 0 0.296824 0 0 0 0 0.244184 0 0 0 0 0.404167 0 0 0 0.6 0"/>
<feBlend mode="normal" in2="BackgroundImageFix" result="effect1_dropShadow_1_25"/>
<feBlend mode="normal" in="SourceGraphic" in2="effect1_dropShadow_1_25" result="shape"/>
</filter>
<linearGradient id="paint0_linear_1_25" x1="30.9643" y1="13.5" x2="155.732" y2="13.5" gradientUnits="userSpaceOnUse">
<stop stop-color="#7975FF"/>
<stop offset="1" stop-color="#4D29FF"/>
</linearGradient>
<linearGradient id="paint1_linear_1_25" x1="28.5523" y1="1.76142" x2="28.8357" y2="1.76663" gradientUnits="userSpaceOnUse">
<stop stop-color="#26A4FF"/>
<stop offset="1" stop-color="#0D9AFF"/>
</linearGradient>
<linearGradient id="paint2_linear_1_25" x1="4.82895" y1="5.57208" x2="5.56427" y2="5.58564" gradientUnits="userSpaceOnUse">
<stop stop-color="#26A4FF"/>
<stop offset="1" stop-color="#0D9AFF"/>
</linearGradient>
<linearGradient id="paint3_linear_1_25" x1="1.02023" y1="17.9404" x2="1.75556" y2="17.9538" gradientUnits="userSpaceOnUse">
<stop stop-color="#26A4FF"/>
<stop offset="1" stop-color="#0D9AFF"/>
</linearGradient>
<linearGradient id="paint4_linear_1_25" x1="22.9144" y1="21.3356" x2="23.6497" y2="21.3492" gradientUnits="userSpaceOnUse">
<stop stop-color="#26A4FF"/>
<stop offset="1" stop-color="#0D9AFF"/>
</linearGradient>
<linearGradient id="paint5_linear_1_25" x1="5.8107" y1="14.472" x2="6.09414" y2="14.4771" gradientUnits="userSpaceOnUse">
<stop stop-color="#26A4FF"/>
<stop offset="1" stop-color="#0D9AFF"/>
</linearGradient>
<linearGradient id="paint6_linear_1_25" x1="11.1953" y1="1.22933" x2="11.6407" y2="1.23753" gradientUnits="userSpaceOnUse">
<stop stop-color="#26A4FF"/>
<stop offset="1" stop-color="#0D9AFF"/>
</linearGradient>
<linearGradient id="paint7_linear_1_25" x1="3.80448" y1="11.3173" x2="1.57507" y2="11.6538" gradientUnits="userSpaceOnUse">
<stop stop-color="#26A4FF"/>
<stop offset="1" stop-color="#0D9AFF"/>
</linearGradient>
<linearGradient id="paint8_linear_1_25" x1="1.16418" y1="2.04004" x2="25.9058" y2="23.706" gradientUnits="userSpaceOnUse">
<stop stop-color="#868CFF"/>
<stop offset="1" stop-color="#4318FF"/>
</linearGradient>
<linearGradient id="paint9_linear_1_25" x1="1.07694" y1="24.8028" x2="-0.0698662" y2="21.8565" gradientUnits="userSpaceOnUse">
<stop stop-color="#3F5FFF"/>
<stop offset="1" stop-color="#3F5FFF" stop-opacity="0"/>
</linearGradient>
<linearGradient id="paint10_linear_1_25" x1="1.07694" y1="24.8025" x2="-0.0698653" y2="21.8563" gradientUnits="userSpaceOnUse">
<stop stop-color="#1DA0FF"/>
<stop offset="1" stop-color="#199FFF" stop-opacity="0.13"/>
</linearGradient>
<linearGradient id="paint11_linear_1_25" x1="23.4354" y1="5.65576" x2="20.3489" y2="5.32614" gradientUnits="userSpaceOnUse">
<stop stop-color="#26A4FF"/>
<stop offset="1" stop-color="#0D9AFF"/>
</linearGradient>
<clipPath id="clip0_1_25">
<rect width="153" height="27" fill="white"/>
</clipPath>
</defs>
</svg>
